<?xml version="1.0" encoding="utf-8"?>
<!-- Generator: Adobe Illustrator 26.5.2, SVG Export Plug-In . SVG Version: 6.00 Build 0)  -->
<svg version="1.1" id="Capa_1" xmlns="http://www.w3.org/2000/svg" xmlns:xlink="http://www.w3.org/1999/xlink" x="0px" y="0px"
	 viewBox="0 0 283.8 84.2" style="enable-background:new 0 0 283.8 84.2;" xml:space="preserve">
<style type="text/css">
	.st0{enable-background:new    ;}
	.st1{fill:#1D1D1B;}
	.st2{fill:#F4F3EF;}
</style>
<g class="st0">
	<path class="st1" d="M114,5.7h6.3v27.2H114V22h-10v10.9h-6.2V5.7h6.2v11.1h10V5.7z"/>
	<path class="st1" d="M141.4,26.8v4.9c-1.4,0.9-3.5,1.4-6.4,1.4c-3.4,0-6-1-7.8-2.9s-2.8-4.5-2.8-7.5c0-3.3,0.9-5.8,2.7-7.6
		c1.8-1.8,4.1-2.8,6.7-2.8c2.7,0,4.9,0.8,6.5,2.4s2.4,4,2.4,7.2c0,0.6-0.1,1.7-0.3,3.2h-12c0.4,1.1,1.1,2,2.1,2.6s2.2,0.9,3.6,0.9
		C138.1,28.5,139.9,27.9,141.4,26.8z M137.2,20.7v-0.5c-0.2-2.4-1.2-3.6-3.1-3.6c-0.9,0-1.8,0.3-2.5,1s-1.2,1.7-1.5,3h7.1V20.7z"/>
	<path class="st1" d="M147.4,18.7v-5.3c1.6-0.9,3.9-1.4,7-1.4c2.9,0,5.1,0.6,6.5,1.9c1.4,1.2,2.1,3.2,2.1,5.8v13.1h-5.8v-2.5
		c-0.9,1.7-2.6,2.6-5.1,2.6c-2,0-3.5-0.6-4.7-1.7c-1.1-1.1-1.7-2.5-1.7-4.2c0-2,0.7-3.5,2.2-4.6c1.4-1.1,3.6-1.6,6.4-1.6h2.6v-1.4
		c0-1.7-1.1-2.6-3.4-2.6C151.3,16.8,149.3,17.5,147.4,18.7z M157,24.5h-1.9c-1,0-1.8,0.2-2.3,0.6s-0.8,1-0.8,1.7
		c0,1.4,0.8,2.1,2.4,2.1c0.8,0,1.5-0.3,1.9-0.8c0.5-0.5,0.7-1.2,0.7-2.1L157,24.5L157,24.5z"/>
	<path class="st1" d="M167.9,32.8V4.3h5.9v28.5H167.9z"/>
	<path class="st1" d="M185.6,16.7v9.4c0,0.7,0.2,1.3,0.6,1.7c0.4,0.4,1,0.6,1.6,0.6c1.1,0,2-0.3,2.9-0.8v4.9c-1,0.4-2.3,0.6-4,0.6
		c-4.7,0-7-2.3-7-7v-9.4h-2.9v-4.3h2.9V7.6h5.9v4.8h4.8v4.3H185.6z"/>
	<path class="st1" d="M200.3,4.3v11.5c1-2.4,3.1-3.7,6.1-3.7c2,0,3.6,0.6,4.9,1.9s1.9,3.2,1.9,5.7v13h-5.9v-12
		c0-1.2-0.3-2.1-0.9-2.8c-0.6-0.7-1.4-1-2.3-1c-0.4,0-0.8,0.1-1.2,0.2s-0.8,0.3-1.2,0.6c-0.4,0.3-0.8,0.8-1,1.6
		c-0.3,0.7-0.4,1.6-0.4,2.7v10.8h-5.9V4.3H200.3z"/>
</g>
<g class="st0">
	<path class="st1" d="M115.5,75.2l-1.7-5.6h-9.5l-1.7,5.6h-6.5l9.1-27.2h7.8l9.1,27.2H115.5z M105.8,64.6h6.5l-0.3-1
		c-0.8-2.6-1.4-4.9-1.9-6.7c-0.5-1.9-0.8-3.1-0.9-3.6l-0.2-0.8c-0.2,1.5-1.2,5.2-3,11.1L105.8,64.6z"/>
	<path class="st1" d="M125.7,75.2V46.7h5.9v28.5H125.7z"/>
	<path class="st1" d="M149.7,54.8h5.8v18.5c0,3.3-1,5.7-2.9,7.4s-4.4,2.5-7.4,2.5c-2.9,0-5.4-0.5-7.5-1.5v-6
		c1.9,1.5,4.2,2.3,6.9,2.3c1.8,0,3.1-0.4,3.9-1.1c0.8-0.8,1.2-1.9,1.2-3.5V72c-1.2,1.8-3.1,2.7-5.6,2.7c-2.3,0-4.2-0.8-5.8-2.5
		s-2.4-4.1-2.4-7.4c0-2.9,0.8-5.3,2.4-7.2c1.6-1.9,3.6-2.8,6.2-2.8c2.4,0,4.2,1,5.4,2.9v-2.9H149.7z M145.7,69.8
		c1.3,0,2.3-0.5,3-1.4c0.7-1,1.1-2.1,1.1-3.4c0-3.7-1.3-5.5-4-5.5c-1.2,0-2.1,0.5-2.8,1.4s-1,2.2-1,3.8c0,1.7,0.3,3,1,3.9
		S144.5,69.8,145.7,69.8z"/>
	<path class="st1" d="M169.3,75.5c-3.2,0-5.7-1-7.4-2.9s-2.6-4.4-2.6-7.4c0-3.1,0.9-5.7,2.7-7.8c1.8-2,4.3-3,7.3-3
		c3.2,0,5.6,1,7.4,2.9s2.6,4.5,2.6,7.5c0,3.1-0.9,5.6-2.6,7.6C174.9,74.5,172.4,75.5,169.3,75.5z M169.2,59.1
		c-1.3,0-2.3,0.6-2.9,1.7c-0.6,1.1-1,2.5-1,4.3s0.3,3.2,1,4.3c0.7,1.1,1.6,1.7,3,1.7c1.3,0,2.3-0.5,2.9-1.6c0.6-1.1,0.9-2.5,0.9-4.3
		C173.1,61.1,171.8,59.1,169.2,59.1z"/>
	<path class="st1" d="M189,54.8v3.8c0.4-1.2,1-2.1,1.9-2.8s1.9-1.1,3-1.1c0.6,0,1.2,0.1,1.5,0.2v5.6c-0.6-0.3-1.4-0.4-2.2-0.4
		c-1.3,0-2.3,0.5-3.1,1.4s-1.2,2.2-1.2,3.7v10.2H183V54.9L189,54.8L189,54.8z"/>
	<path class="st1" d="M198.8,51.2c-0.7-0.7-1-1.5-1-2.4s0.3-1.7,1-2.4s1.5-1,2.4-1s1.7,0.3,2.4,1s1,1.5,1,2.4s-0.3,1.7-1,2.4
		s-1.5,1-2.4,1C200.2,52.3,199.4,51.9,198.8,51.2z M198.2,75.2V54.8h5.9v20.5h-5.9V75.2z"/>
	<path class="st1" d="M216,59.1v9.4c0,0.7,0.2,1.3,0.6,1.7c0.4,0.4,1,0.6,1.6,0.6c1.1,0,2-0.3,2.9-0.8v4.9c-1,0.4-2.3,0.6-4,0.6
		c-4.7,0-7-2.3-7-7v-9.4h-2.9v-4.3h2.9V50h5.9v4.8h4.8v4.3C220.8,59.1,216,59.1,216,59.1z"/>
	<path class="st1" d="M230.6,46.7v11.5c1-2.4,3.1-3.7,6.1-3.7c2,0,3.6,0.6,4.9,1.9s1.9,3.2,1.9,5.7v13h-5.9v-12
		c0-1.2-0.3-2.1-0.9-2.8c-0.6-0.7-1.4-1-2.3-1c-0.4,0-0.8,0.1-1.2,0.2c-0.4,0.1-0.8,0.3-1.2,0.6s-0.8,0.8-1,1.6
		c-0.3,0.7-0.4,1.6-0.4,2.7v10.8h-5.9V46.7H230.6z"/>
	<path class="st1" d="M254,54.8V58c1.1-2.3,3.1-3.4,5.8-3.4c2.9,0,4.8,1.3,5.7,3.9c0.5-1.2,1.2-2.2,2.3-2.8c1.1-0.7,2.3-1,3.8-1
		c2,0,3.6,0.6,4.8,1.9c1.2,1.3,1.8,3.2,1.8,5.6v13.1h-5.9V63.1c0-1.2-0.2-2.1-0.7-2.7c-0.5-0.7-1.1-1-2-1s-1.7,0.4-2.4,1.1
		c-0.7,0.7-1.1,2.1-1.1,4v10.8h-5.9V63.1c0-1.2-0.2-2.1-0.7-2.7c-0.5-0.7-1.1-1-2-1c-0.9,0-1.7,0.4-2.4,1.1c-0.7,0.7-1.1,2.1-1.1,4
		v10.8h-5.9V54.8H254z"/>
</g>
<circle class="st1" cx="44.1" cy="42.3" r="39.1"/>
<rect x="24.9" y="23.1" transform="matrix(0.7071 -0.7071 0.7071 0.7071 -17.0045 43.5484)" class="st2" width="38.4" height="38.4"/>
</svg>
