<?xml version="1.0" encoding="utf-8"?>
<!-- Generator: Adobe Illustrator 26.5.2, SVG Export Plug-In . SVG Version: 6.00 Build 0)  -->
<svg version="1.1" id="Capa_2_00000146498780034237564970000003750411666163575204_"
	 xmlns="http://www.w3.org/2000/svg" xmlns:xlink="http://www.w3.org/1999/xlink" x="0px" y="0px" viewBox="0 0 138 166.7"
	 style="enable-background:new 0 0 138 166.7;" xml:space="preserve">
<style type="text/css">
	.st0{fill:#1D1D1B;}
	.st1{enable-background:new    ;}
	.st2{fill:#F4F3EF;}
</style>
<circle class="st0" cx="44.2" cy="42.6" r="39.1"/>
<g class="st1">
	<path class="st0" d="M16.8,99.3h4.5v19.5h-4.5V111H9.6v7.8H5.1V99.3h4.5v7.9h7.2V99.3z"/>
	<path class="st0" d="M36.4,114.4v3.5c-1,0.7-2.5,1-4.6,1c-2.4,0-4.3-0.7-5.6-2.1c-1.3-1.4-2-3.2-2-5.4c0-2.3,0.7-4.2,2-5.5
		c1.3-1.3,2.9-2,4.8-2c2,0,3.5,0.6,4.7,1.7c1.1,1.2,1.7,2.9,1.7,5.1c0,0.4-0.1,1.2-0.2,2.3h-8.6c0.3,0.8,0.8,1.4,1.5,1.9
		s1.6,0.7,2.6,0.7C34,115.7,35.3,115.3,36.4,114.4z M33.4,110.1v-0.3c-0.1-1.7-0.9-2.6-2.3-2.6c-0.7,0-1.3,0.2-1.8,0.7
		s-0.9,1.2-1,2.2C28.3,110.1,33.4,110.1,33.4,110.1z"/>
	<path class="st0" d="M40.7,108.6v-3.8c1.2-0.7,2.8-1,5-1c2.1,0,3.6,0.4,4.7,1.3c1,0.9,1.5,2.3,1.5,4.2v9.4h-4.1v-1.8
		c-0.6,1.3-1.8,1.9-3.7,1.9c-1.4,0-2.5-0.4-3.3-1.2c-0.8-0.8-1.2-1.8-1.2-3c0-1.4,0.5-2.5,1.6-3.3s2.6-1.2,4.6-1.2h1.9v-1
		c0-1.2-0.8-1.9-2.5-1.9C43.6,107.3,42.1,107.7,40.7,108.6z M47.6,112.8h-1.4c-0.7,0-1.3,0.2-1.7,0.5c-0.4,0.3-0.6,0.7-0.6,1.2
		c0,1,0.6,1.5,1.7,1.5c0.6,0,1.1-0.2,1.4-0.6s0.5-0.9,0.5-1.5L47.6,112.8L47.6,112.8z"/>
	<path class="st0" d="M55.4,118.8V98.3h4.2v20.5H55.4z"/>
	<path class="st0" d="M68.2,107.2v6.8c0,0.5,0.1,0.9,0.4,1.2c0.3,0.3,0.7,0.4,1.2,0.4c0.8,0,1.5-0.2,2.1-0.6v3.5
		c-0.7,0.3-1.7,0.5-2.9,0.5c-3.3,0-5-1.7-5-5v-6.7h-2.1v-3.1H64v-3.5h4.2v3.5h3.4v3.1h-3.4V107.2z"/>
	<path class="st0" d="M78.7,98.3v8.3c0.8-1.8,2.2-2.6,4.4-2.6c1.4,0,2.6,0.5,3.5,1.4s1.3,2.3,1.3,4.1v9.4h-4.2v-8.7
		c0-0.9-0.2-1.5-0.6-2s-1-0.7-1.7-0.7c-0.3,0-0.6,0-0.8,0.1c-0.3,0.1-0.5,0.2-0.9,0.5c-0.3,0.2-0.6,0.6-0.8,1.1
		c-0.2,0.5-0.3,1.2-0.3,1.9v7.8h-4.2V98.4h4.3V98.3z"/>
</g>
<g class="st1">
	<path class="st0" d="M17.8,157.2l-1.2-4H9.8l-1.2,4H3.9l6.5-19.5H16l6.5,19.5H17.8z M10.8,149.6h4.7l-0.2-0.7
		c-0.6-1.9-1-3.5-1.4-4.8s-0.6-2.2-0.7-2.6l-0.1-0.6c-0.2,1.1-0.9,3.7-2.1,8L10.8,149.6z"/>
	<path class="st0" d="M25.1,157.2v-20.5h4.2v20.5H25.1z"/>
	<path class="st0" d="M42.4,142.5h4.2v13.3c0,2.4-0.7,4.1-2.1,5.3s-3.2,1.8-5.3,1.8c-2.1,0-3.9-0.4-5.4-1.1v-4.3
		c1.4,1.1,3,1.6,5,1.6c1.3,0,2.2-0.3,2.8-0.8c0.6-0.5,0.9-1.4,0.9-2.6v-1c-0.9,1.3-2.2,2-4.1,2c-1.6,0-3-0.6-4.2-1.8s-1.8-3-1.8-5.3
		c0-2.1,0.6-3.8,1.7-5.2s2.6-2,4.5-2c1.7,0,3,0.7,3.9,2.1L42.4,142.5L42.4,142.5z M39.5,153.3c0.9,0,1.6-0.3,2.1-1s0.8-1.5,0.8-2.5
		c0-2.6-1-3.9-2.9-3.9c-0.9,0-1.5,0.3-2,1s-0.7,1.6-0.7,2.7c0,1.2,0.2,2.1,0.7,2.8C38,153,38.7,153.3,39.5,153.3z"/>
	<path class="st0" d="M56.5,157.4c-2.3,0-4.1-0.7-5.3-2.1c-1.3-1.4-1.9-3.2-1.9-5.3c0-2.3,0.7-4.1,2-5.6s3.1-2.2,5.2-2.2
		c2.3,0,4.1,0.7,5.3,2.1c1.3,1.4,1.9,3.2,1.9,5.4s-0.6,4.1-1.9,5.5C60.5,156.7,58.7,157.4,56.5,157.4z M56.4,145.6
		c-0.9,0-1.6,0.4-2.1,1.2s-0.7,1.8-0.7,3.1s0.2,2.3,0.7,3.1s1.2,1.2,2.1,1.2s1.6-0.4,2.1-1.2s0.7-1.8,0.7-3.1
		C59.2,147,58.3,145.6,56.4,145.6z"/>
	<path class="st0" d="M70.6,142.5v2.7c0.3-0.9,0.7-1.5,1.3-2c0.6-0.5,1.4-0.8,2.2-0.8c0.5,0,0.8,0,1.1,0.1v4c-0.5-0.2-1-0.3-1.6-0.3
		c-0.9,0-1.6,0.3-2.2,1s-0.8,1.6-0.8,2.7v7.3h-4.2v-14.7H70.6z"/>
	<path class="st0" d="M77.7,140c-0.5-0.5-0.7-1.1-0.7-1.7s0.2-1.3,0.7-1.7c0.5-0.5,1.1-0.7,1.7-0.7s1.3,0.2,1.7,0.7
		c0.5,0.5,0.7,1.1,0.7,1.7s-0.2,1.3-0.7,1.7c-0.5,0.5-1.1,0.7-1.7,0.7S78.1,140.5,77.7,140z M77.3,157.2v-14.7h4.2v14.7H77.3z"/>
	<path class="st0" d="M90,145.6v6.8c0,0.5,0.1,0.9,0.4,1.2c0.3,0.3,0.7,0.4,1.2,0.4c0.8,0,1.5-0.2,2.1-0.6v3.5
		c-0.7,0.3-1.7,0.5-2.9,0.5c-3.3,0-5-1.7-5-5v-6.7h-2.1v-3.2h2.1V139H90v3.5h3.4v3.1H90z"/>
	<path class="st0" d="M100.6,136.7v8.3c0.8-1.8,2.2-2.6,4.4-2.6c1.4,0,2.6,0.5,3.5,1.4s1.3,2.3,1.3,4.1v9.4h-4.2v-8.8
		c0-0.9-0.2-1.5-0.6-2c-0.4-0.5-1-0.7-1.7-0.7c-0.3,0-0.6,0-0.8,0.1c-0.3,0.1-0.5,0.2-0.9,0.5c-0.3,0.2-0.6,0.6-0.8,1.1
		s-0.3,1.2-0.3,1.9v7.8h-4.2v-20.5L100.6,136.7L100.6,136.7z"/>
	<path class="st0" d="M117.4,142.5v2.3c0.8-1.6,2.2-2.4,4.1-2.4c2.1,0,3.4,0.9,4.1,2.8c0.3-0.9,0.9-1.6,1.7-2s1.7-0.7,2.7-0.7
		c1.4,0,2.6,0.5,3.4,1.4c0.8,0.9,1.3,2.3,1.3,4v9.4h-4.2v-8.8c0-0.8-0.2-1.5-0.5-2s-0.8-0.7-1.4-0.7c-0.7,0-1.2,0.3-1.8,0.8
		c-0.5,0.5-0.8,1.5-0.8,2.9v7.8h-4.2v-8.8c0-0.8-0.2-1.5-0.5-2s-0.8-0.7-1.4-0.7c-0.7,0-1.2,0.3-1.8,0.8c-0.5,0.5-0.8,1.5-0.8,2.9
		v7.8h-4.2v-14.8H117.4z"/>
</g>
<rect x="25.1" y="23.4" transform="matrix(0.7071 -0.7071 0.7071 0.7071 -17.1215 43.7928)" class="st2" width="38.4" height="38.4"/>
</svg>
