<?xml version="1.0" encoding="UTF-8"?>
<svg id="Capa_4" data-name="Capa 4" xmlns="http://www.w3.org/2000/svg" viewBox="0 0 380 380">
  <defs>
    <style>
      .cls-1 {
        fill: #db7a90;
      }

      .cls-2 {
        fill: #fff;
        fill-rule: evenodd;
      }
    </style>
  </defs>
  <circle class="cls-1" cx="190.01" cy="190" r="190" transform="translate(-78.7 190.01) rotate(-45)"/>
  <path class="cls-2" d="M178.1,165.53c13.16-45.3,48.4-58.08,103.14-56.07,9.84,.36,13.61,23.37-.6,24.99-9.92,1.13-18.46,3.09-25.73,6.14,11.25,13.32,21.51,27.54,23.38,42.26,3.34,26.22-4.21,42.93-8.39,62.66-8.67,40.88-29.07,73.83-56.61,73.83-32.19,0-54.11-21.45-77.76-47.09-18.75-20.31-40.9-51.15-44.84-74.89-4.45-26.78,14.68-58.66,27.44-68.44-.53-15.18-5.86-25.18-15.86-34.61-5.12-4.82,11.23-17.92,22.21-10.98,5.29,3.33,11.26,10.52,14.82,17.47-12.28,16.37-16.23,36.74-19.72,57.75-3.33,5.91-6.03,12.28-7.39,16.93-1.71,5.84-2.78,12.54-1.77,18.6,3.22,19.39,26.54,50.23,39.81,64.61,16.95,18.37,36.22,40.64,63.07,40.64,1.3,0,2.59-.15,3.86-.45,19.34-4.62,30.01-40.33,33.07-56.96,.11-.57,.24-1.14,.39-1.7,5.3-19.39,10.52-33.76,7.84-54.84-1.26-9.88-10.95-22.75-20.27-33.7-5.69,5.81-10.05,13.21-12.92,22.63-1.58,5.21-15.69,7.87-27.2,5.69-11.74-2.23-21.4-9.51-19.96-14.47Z"/>
  <path class="cls-2" d="M130.68,164.94c-.77,4.69,4.81,11.32,17.39,13.21,14.91,2.24,23.9-2.35,23.39-7.53-1.59-16.26,1.62-59.86,29.79-57.13,8.07-5.19,17.08-8.9,26.8-11.44,6.08-6.97,7.68-11.87,7.99-18.22,.1-1.9-1.65-5.48-5.66-7.93-3.45-2.1-10.75-3.32-11.45-.63-1.28,4.95-4.2,10.11-8.07,14.55-.28-.13-.56-.26-.85-.39,1.91-10.02,.94-15.97-2.38-22.29-1.4-2.66-5.04-4.22-10.12-4.22-5.78,0-12.57,3.03-11.94,5.63,1.27,5.21,1.48,11.33,.55,17.42-.69,.08-1.37,.18-2.06,.29-2.54-7.54-5.88-11.69-10.79-15.5-2.46-1.91-7.16-2.2-11.74,.12-5.62,2.84-9.06,8.94-7.45,10.93,3.06,3.77,5.71,8.57,7.54,13.82-21.8,15.52-26.05,39.39-30.96,69.31Z"/>
</svg>