<?xml version="1.0" encoding="UTF-8"?>
<svg id="Capa_1" data-name="Capa 1" xmlns="http://www.w3.org/2000/svg" viewBox="0 0 380 380.01">
  <defs>
    <style>
      .cls-1 {
        fill: #8cc9a9;
      }

      .cls-1, .cls-2 {
        fill-rule: evenodd;
      }

      .cls-2 {
        fill: #fff;
      }
    </style>
  </defs>
  <path class="cls-1" d="M190,0c104.93,0,190,85.08,190,190s-85.07,190-190,190S0,294.93,0,190,85.07,0,190,0Z"/>
  <path class="cls-2" d="M177,208c3.87,0,7,3.14,7,7.01s-3.13,6.99-7,6.99-6.99-3.13-6.99-6.99,3.13-7.01,6.99-7.01h0Zm-19.98,35c3.86,0,6.99,3.14,6.99,7.01s-3.13,6.99-6.99,6.99-7-3.13-7-6.99,3.13-7.01,7-7.01h0Zm-18.99-14.99c3.31,0,6,2.69,6,5.99s-2.69,6.01-6,6.01-6-2.69-6-6.01,2.69-5.99,6-5.99h0Zm23.99-102.01c3.86,0,6.99,3.14,6.99,7.01s-3.13,7.01-6.99,7.01-7-3.14-7-7.01,3.13-7.01,7-7.01h0Zm27.98,49.01c3.86,0,6.99,3.13,6.99,6.99s-3.13,7.01-6.99,7.01-7-3.13-7-7.01,3.13-6.99,7-6.99h0Zm-1-40.01c4.41,0,7.99,3.59,7.99,8s-3.58,8-7.99,8-8-3.59-8-8,3.58-8,8-8h0Zm-3,97.01c5.52,0,9.99,4.47,9.99,10s-4.47,10-9.99,10-9.99-4.47-9.99-10,4.47-10,9.99-10Z"/>
  <path class="cls-2" d="M202.3,208.91c0-3.32,2.68-6.01,6-6.01s5.99,2.69,5.99,6.01c0,4.8,6.95,7.19,9.81,.48,5.65-13.24,8.05-12.43,14.78-20.71,7.89-9.7,1.47-23.54-10.39-23.19-4.82,.14-9.29,2.85-11.35,7.25-1.39,2.99-4.95,4.29-7.94,2.89-2.98-1.4-4.27-4.96-2.88-7.95,8.72-18.65,36.04-19.12,45.37,.03,4.43,9.11,3.29,20.1-3.54,28.51-6.43,7.92-8.52,7.25-13.04,17.86-8.03,18.79-32.81,12.42-32.81-5.18h0Zm-58.91-26c-4.51-.44-7.73-4.55-7.11-9.04-.53-.07-1.07-.14-1.61-.19-4.38-.46-7.55-4.39-7.09-8.78,.47-4.39,4.4-7.56,8.78-7.09,9.95,1.07,18.05,3.57,26.9,7.74,6.59,3.1,6.04,12.21-.37,14.72-6.08,2.37-12.41,3.35-19.5,2.64h0Zm129.11,80.42c-11.6-27.38-.3-45.11,9.67-62.84,8.8-15.64,17.85-31.73,17.83-55.23-.05-53.19-40.97-87.26-92.52-87.26-40.71,0-86.66,21.45-103.27,60.47-5.02,11.82-5.16,22.59-5.26,30.42-.04,2.87-.07,5.12-.13,5.26-4.8,11.63-16.29,22.97-23.02,34.42-8.66,14.7-1.68,25.94,12.53,29.99-.76,4.67-1.39,10.38-.1,16.28,1.59,7.24,3.92,10.96,5.99,14.25,1.07,1.7,1.97,3.14,1.96,6.11-.05,11.38,3.89,18.75,10.51,23.66,5.59,4.15,12.6,5.9,20.41,6.71,2.16,.24,4.33,.42,6.49,.61,15.32,1.36,15.44,1.37,21.98,16.28,1.14,2.6,1.5,3.54,2.41,5.61,5.29,12.02,23.56,3.97,18.27-8.06-1.26-2.85-1.27-2.91-2.41-5.52-11.29-25.72-11.49-25.75-38.53-28.16-4.84-.43-13.19-.84-16.75-3.49-1.56-1.16-2.49-3.45-2.47-7.57,.03-8.76-2.28-12.45-5.01-16.79-4.41-7.05-4.04-11.02-2.67-18.95,1.24-7.14,2.15-12.36-4.39-16.52-3.75-2.38-7.27-2.67-11.27-3.95,6.98-13.15,18.32-22.37,24.5-37.33,1.49-3.6,1.54-7.57,1.61-12.6,.08-6.13,.18-14.56,3.7-22.83,13.42-31.55,52.34-48.29,84.92-48.29,40.55,0,72.57,25.07,72.61,67.26,0,18.33-7.74,32.08-15.28,45.47-12.24,21.74-26.26,43.51-10.88,79.81l8.61,20.34c5.12,12.1,23.45,4.31,18.35-7.74l-8.39-19.81Z"/>
</svg>