<?xml version="1.0" encoding="UTF-8"?>
<svg id="Capa_2" data-name="Capa 2" xmlns="http://www.w3.org/2000/svg" viewBox="0 0 380.01 380.01">
  <defs>
    <style>
      .cls-1 {
        fill: #ac8abf;
      }

      .cls-1, .cls-2 {
        fill-rule: evenodd;
      }

      .cls-2 {
        fill: #fff;
      }
    </style>
  </defs>
  <path class="cls-1" d="M161.44,2.09c127.25-18.53,235.01,89.2,216.48,216.47-11.98,82.29-77.08,147.39-159.38,159.37C91.3,396.45-16.43,288.72,2.08,161.49,14.05,79.19,79.15,14.08,161.44,2.09Z"/>
  <path class="cls-2" d="M190,168.94c.8-2,1.68-3.95,2.55-5.82,6.89-14.66,10.55-25.91,11.87-41.32-10.08-.97-18.76-.97-28.81,0,1.3,15.41,4.94,26.66,11.85,41.32,.87,1.87,1.73,3.82,2.55,5.82Z"/>
  <path class="cls-2" d="M298.01,132.63c.04,4.51-1.87,9.41-5.37,12.36-12.9-7.46-32.08-2.62-39.48,10.42-1.16-1.46-2.1-3.03-2.81-4.59,1.47-6.23,2.38-13.74,2.53-23.04,.11-7.33,5.43-14.79,13.07-14.64,11.34,.22,31.97,4.71,32.06,19.49h0Zm-216.02,0c-.04,4.51,1.88,9.41,5.39,12.36,12.9-7.46,32.08-2.62,39.5,10.42,1.15-1.46,2.09-3.03,2.78-4.59-1.45-6.23-2.37-13.74-2.52-23.04-.11-7.33-5.43-14.79-13.07-14.64-11.34,.22-31.97,4.71-32.08,19.49h0Zm134.78-15.88c-1.2,25.64-7.96,40.02-13.36,51.48-7.45,15.85-15.24,43.26,.53,57.46-.18,21.92,0,57.19,6.15,77.04,2.46,7.91,8.03,11.32,13.07,11.52,10.19,.4,14.29-13,5.68-18.42-4.98-13.17-4.9-74.95-4.86-81.58,.08-15.51,.3-21.54,10.67-34.01,3.71-4.49,7.56-9.12,10.76-15.48,1.65,1.82,3.53,3.47,5.61,4.86,6.22,24.29,50.03,18.01,51.59-7.16,9.72-6.55,15.55-18.33,15.38-29.99-.39-29.73-35.93-43.52-60.89-43.47-8.75,0-12.65-2.43-19.94-6.86-30.93-18.83-63.37-18.83-94.28,0-7.28,4.43-11.19,6.87-19.94,6.86-24.96-.05-60.5,13.74-60.89,43.47-.17,11.66,5.66,23.44,15.38,29.99,1.54,25.17,45.37,31.45,51.58,7.16,2.09-1.39,3.96-3.04,5.61-4.86,3.18,6.36,7.05,10.99,10.76,15.48,10.37,12.47,10.58,18.5,10.67,34.01,.04,6.63,.12,68.41-4.86,81.58-8.6,5.42-4.53,18.82,5.66,18.42,5.05-.2,10.63-3.61,13.07-11.52,6.16-19.85,6.34-55.12,6.16-77.04,15.78-14.2,7.97-41.61,.51-57.46-5.39-11.46-12.14-25.84-13.35-51.48-.14-3.14,2.15-5.85,5.26-6.23,16.53-2.05,26.47-2.05,43,0,3.11,.38,5.41,3.09,5.26,6.23Z"/>
</svg>