<?xml version="1.0" encoding="UTF-8"?>
<svg id="Capa_5" data-name="Capa 5" xmlns="http://www.w3.org/2000/svg" viewBox="0 0 380 380">
  <defs>
    <style>
      .cls-1 {
        fill: #8fb5d7;
      }

      .cls-2 {
        fill: #fff;
        fill-rule: evenodd;
      }
    </style>
  </defs>
  <circle class="cls-1" cx="190" cy="190" r="190" transform="translate(-1.72 378.27) rotate(-89.48)"/>
  <path class="cls-2" d="M216.18,166.72c11.63,5.19,11.38,4.28,21.32,.03,6.7-2.22,8.71-6.22,8.2-11.01-.19-1.79-5.6-2.92-26.09,2.49,6.04-8.72,16.02-12.29,27.27-14.2,6.27-14.33-9.54-28.48-21.83-32.71-9.53-3.28-20.29-3.14-30.09-1.2-11.43,2.26-23.48,7.37-32.6,14.69-4.1,3.29-11.08,10.18-11.01,15.98,.01,.98,.25,1.87,.67,2.75,2.76,5.79,15.69,9.36,21.5,9.75,1.66,.11,2.53-12.47,22.79-13.78,4.5-5.48,17.72-13.01,30.93-8.62-8.86,1.66-18.44,6.37-22.22,14.3-9.14,.8-15.68,6.15-16.31,11.14,6.26,8.64,13.63,5.95,27.46,10.4h0Zm-78.6-16.29c-14.98-31.36,48.52-69.46,92.69-54.23,27.29,9.4,39.64,35.15,31.28,54.26,4.6,11.67-6.87,27.48-19.04,31.5-3.66,1.2-2.88,5.87-1.99,8.87,1.91,6.37,2.55,13.75,2.18,19.95-.27,4.37-1.05,8.71-2.06,12.97-2.66,11.23-4.79,22.93-4.73,34.49,.05,10.36,3.86,25.7,9.62,34.33,1.83,2.74,1.09,6.48-1.64,8.31s-6.48,1.09-8.31-1.65c-7.11-10.66-11.58-28.2-11.64-40.95-.06-12.52,2.15-25.13,5.03-37.28,4.03-17-2.27-34.09-17.68-39.04-9.1-2.92-27.12-3.16-31.39-12.76-17.65,1.52-36.79-7.19-42.32-18.76Z"/>
  <path class="cls-2" d="M272.56,263.34l8.4,19.81c5.1,12.04-13.24,19.84-18.36,7.74l-8.62-20.34c-15.39-36.3-1.36-58.08,10.89-79.81,7.55-13.39,15.31-27.15,15.29-45.47-.04-42.18-32.08-67.26-72.66-67.26-32.6,0-71.54,16.74-84.97,48.28-3.52,8.28-3.63,16.71-3.71,22.84-.06,5.03-.12,9-1.61,12.6-6.18,14.95-17.54,24.17-24.52,37.34,4.01,1.26,7.53,1.55,11.28,3.93,6.55,4.15,5.64,9.37,4.4,16.52-1.38,7.93-1.75,11.91,2.67,18.95,2.73,4.35,5.04,8.03,5.01,16.79-.02,4.13,.91,6.41,2.47,7.57,3.56,2.64,11.92,3.06,16.77,3.49,27.06,2.41,27.26,2.44,38.55,28.16,1.15,2.62,1.16,2.67,2.42,5.52,5.29,12.03-12.99,20.07-18.28,8.06-.91-2.06-1.27-3-2.41-5.61-6.54-14.91-6.66-14.92-21.99-16.3-2.16-.18-4.34-.36-6.5-.6-7.81-.82-14.83-2.56-20.43-6.71-6.62-4.91-10.57-12.28-10.52-23.66,.01-2.96-.89-4.4-1.96-6.11-2.06-3.28-4.4-7.01-5.99-14.23-1.3-5.91-.66-11.63,.1-16.3-14.22-4.04-21.2-15.28-12.54-29.99,6.74-11.45,18.23-22.79,23.04-34.42,.06-.14,.09-2.4,.12-5.26,.1-7.82,.24-18.59,5.27-30.42,16.62-39.03,62.6-60.47,103.33-60.47,51.58,0,92.54,34.07,92.58,87.26,.02,23.51-9.04,39.58-17.84,55.23-9.98,17.73-21.28,35.46-9.68,62.84Z"/>
</svg>