<?xml version="1.0" encoding="UTF-8"?>
<svg id="Capa_3" data-name="Capa 3" xmlns="http://www.w3.org/2000/svg" viewBox="0 0 380 380">
  <defs>
    <style>
      .cls-1 {
        fill: #d6cf80;
      }

      .cls-1, .cls-2 {
        fill-rule: evenodd;
      }

      .cls-2 {
        fill: #fff;
      }
    </style>
  </defs>
  <path class="cls-1" d="M190.02,0C294.95,0,380.01,85.06,380.01,190s-85.07,190-190,190S.01,294.93,.01,190,85.09,0,190.02,0Z"/>
  <path class="cls-2" d="M269.9,71.13c-5.27,51.15-13.52,113.5-10.57,157.42,2.17,32.13,8.7,51.24,8.29,82.58h-16c.4-30.37-6.09-49.87-8.22-81.51-3.04-45.12,5.15-107.34,10.47-158.49h16.03Zm-99.74,30.21l-16.25-13.53,8.71-5.62,7.54,19.15h0Zm-7.11,8.76l-20.83-16.81-4.29,9.44,25.12,7.37h0Zm-1.32,9.17l-20.4-2.88,1.69,10.23,18.71-7.35h0Zm-35.19-48.14c.46,35.75-1.79,76.29,.84,111.23,1.38,18.42,11.54,38.74,14.52,59.28,3.32,22.77,1.55,46.27,.31,69.49h-15.96c1.19-22.77,2.92-46.07-.16-67.24-2.87-19.73-13.05-39.05-14.65-60.34-2.65-35.25-.35-76.33-.84-112.42h15.94Z"/>
  <path class="cls-2" d="M218.01,63.13h-36.83c-1.15,13.56-1.77,30.84-4.35,47.51l7.3,6.27,4.28-6.31,12.32,22.84-11.3-9.24-1.88,7.86-12.63-11.04c-3.43,15.81-9.22,30.18-19.71,39.1-11.68,9.94-13.77,15.58-11.52,33.24,1.27,9.97,5.95,18.72,17.12,18.72,9.58,0,17.84-4.2,25.99-8.5,2.57-1.35,5.45-1.26,7.92,.26,16.8,10.32,31.99,3.92,33.19-17.52,.27-4.84,.22-9.57-2.14-13.59-6.37-10.82-8.28-24.15-9.38-39.26-1.78-24.37-1.06-48.55,1.62-70.34h0Zm-40.8,256c-.25-23.54-1.79-37.62-4.14-47.53-4.61-19.47-9.8-18.08-16.92-26.71-2.98-3.61-3.51-9.82-4.38-15.83-.38-2.67,1.32-5.12,4.02-5.02,12.76,.46,24.44-4.27,32.8-10.04,1.07-.74,2.4-.62,3.57-.06,9.55,4.58,20.67,6.5,30.82,3.74,4.68-1.27,6.58-3.44,8,4.04,1.39,7.34,3.43,18.84,3.66,25.07,.04,1.1-.32,2.07-1.07,2.88-4.23,4.52-7.06,10.46-8.37,18.32-4.96,29.65-6.13,40.86-6.83,51.14h-41.16Z"/>
</svg>